<?xml version="1.0" encoding="UTF-8" standalone="no"?>
<svg width="225px" height="140px" viewBox="0 0 225 140" version="1.1" xmlns="http://www.w3.org/2000/svg" xmlns:xlink="http://www.w3.org/1999/xlink">
    <!-- Generator: Sketch 43.2 (39069) - http://www.bohemiancoding.com/sketch -->
    <title>eddie-logo-v1</title>
    <desc>Created with Sketch.</desc>
    <defs></defs>
    <g id="Page-1" stroke="none" stroke-width="1" fill="none" fill-rule="evenodd">
        <g id="Desktop-HD" transform="translate(-113.000000, -47.000000)" fill-rule="nonzero" fill="#FFFFFF">
            <g id="eddie-logo-v1" transform="translate(113.000000, 47.000000)">
                <path d="M16.892316,22.5 L39.415404,22.5 L39.415404,33.75 L16.892316,33.75 L16.892316,45 L39.415404,45 L39.415404,56.25 L0,56.25 L0,0 L39.415404,0 L39.415404,11.25 L16.892316,11.25 L16.892316,22.5 Z M61.938492,22.5 L61.938492,45 L67.569264,45 L67.569264,22.5 L61.938492,22.5 Z M84.46158,0 L84.46158,56.25 L45.046176,56.25 L45.046176,11.25 L67.569264,11.25 L67.569264,0 L84.46158,0 Z M106.984668,22.5 L106.984668,45 L112.61544,45 L112.61544,22.5 L106.984668,22.5 Z M129.507756,0 L129.507756,56.25 L90.092352,56.25 L90.092352,11.25 L112.61544,11.25 L112.61544,0 L129.507756,0 Z M135.138528,56.025 L135.138528,16.65 L152.030844,16.65 L152.030844,56.025 L135.138528,56.025 Z M135.138528,11.25 L135.138528,0 L152.030844,0 L152.030844,11.25 L135.138528,11.25 Z M180.184704,28.125 L180.184704,22.5 L174.553932,22.5 L174.553932,28.125 L180.184704,28.125 Z M157.661616,56.25 L157.661616,11.25 L197.07702,11.25 L197.07702,39.375 L174.553932,39.375 L174.553932,45 L197.07702,45 L197.07702,56.25 L157.661616,56.25 Z" id="Eddie"></path>
                <path d="M16.4070625,61.4908537 L16.4070625,105.19817 L32.814125,105.19817 L32.814125,116.125 L0,116.125 L0,61.4908537 L16.4070625,61.4908537 Z M38.2831458,115.906463 L38.2831458,77.662561 L54.6902083,77.662561 L54.6902083,115.906463 L38.2831458,115.906463 Z M38.2831458,72.417683 L38.2831458,61.4908537 L54.6902083,61.4908537 L54.6902083,72.417683 L38.2831458,72.417683 Z M60.1592291,116.125 L60.1592291,99.734756 L65.6282499,99.734756 L65.6282499,94.2713416 L71.0972708,94.2713416 L71.0972708,88.8079272 L76.5662916,88.8079272 L76.5662916,83.344512 L60.1592291,83.344512 L60.1592291,72.417683 L98.4423747,72.417683 L98.4423747,88.8079272 L92.9733541,88.8079272 L92.9733541,94.2713416 L87.5043335,94.2713416 L87.5043335,99.734756 L82.0353121,99.734756 L82.0353121,105.19817 L98.4423747,105.19817 L98.4423747,116.125 L60.1592291,116.125 Z M120.318458,99.734756 L120.318458,105.19817 L125.787479,105.19817 L125.787479,99.734756 L120.318458,99.734756 Z M142.194542,72.417683 L142.194542,116.125 L103.911396,116.125 L103.911396,88.8079272 L125.787479,88.8079272 L125.787479,83.344512 L103.911396,83.344512 L103.911396,72.417683 L142.194542,72.417683 Z M180.477688,72.417683 L180.477688,83.344512 L164.070625,83.344512 L164.070625,116.125 L147.663562,116.125 L147.663562,72.417683 L180.477688,72.417683 Z M202.353771,83.344512 L202.353771,105.19817 L207.822791,105.19817 L207.822791,83.344512 L202.353771,83.344512 Z M224.229854,61.4908537 L224.229854,116.125 L185.946708,116.125 L185.946708,72.417683 L207.822791,72.417683 L207.822791,61.4908537 L224.229854,61.4908537 Z" id="Lizard"></path>
                <path d="M197.158652,39.7946429 L201.517882,39.7946429 L201.517882,44.1494048 L190.619806,44.1494048 L190.619806,22.3755952 L197.158652,22.3755952 L197.158652,26.7303571 L201.517882,26.7303571 L201.517882,31.085119 L197.158652,31.085119 L197.158652,39.7946429 Z M203.697497,44.1494048 L203.697497,22.3755952 L210.236343,22.3755952 L210.236343,26.7303571 L218.954803,26.7303571 L218.954803,44.1494048 L212.415958,44.1494048 L212.415958,31.085119 L210.236343,31.085119 L210.236343,44.1494048 L203.697497,44.1494048 Z M229.85288,33.2625 L229.85288,31.085119 L227.673265,31.085119 L227.673265,33.2625 L229.85288,33.2625 Z M221.134419,44.1494048 L221.134419,26.7303571 L236.391726,26.7303571 L236.391726,37.6172619 L227.673265,37.6172619 L227.673265,39.7946429 L236.391726,39.7946429 L236.391726,44.1494048 L221.134419,44.1494048 Z" id="the" transform="translate(213.505766, 33.262500) rotate(-90.000000) translate(-213.505766, -33.262500) "></path>
                <path d="M118.984469,121.25 L118.984469,128.75 L117.107545,128.75 L117.107545,130.625 L118.984469,130.625 L118.984469,140 L105.846001,140 L105.846001,121.25 L118.984469,121.25 Z M111.476773,125 L111.476773,128.75 L113.353697,128.75 L113.353697,125 L111.476773,125 Z M111.486158,132.509375 L111.486158,136.259375 L113.363082,136.259375 L113.363082,132.509375 L111.486158,132.509375 Z M133.999861,121.25 L133.999861,140 L128.369089,140 L128.369089,132.5 L126.492165,132.5 L126.492165,140 L120.861393,140 L120.861393,121.25 L133.999861,121.25 Z M126.492165,125 L126.492165,128.75 L128.369089,128.75 L128.369089,125 L126.492165,125 Z M149.015253,121.25 L149.015253,125 L141.507557,125 L141.507557,136.25 L149.015253,136.25 L149.015253,140 L135.876785,140 L135.876785,121.25 L149.015253,121.25 Z M158.399873,140 L158.399873,132.5 L156.522949,132.5 L156.522949,140 L150.892177,140 L150.892177,121.25 L156.522949,121.25 L156.522949,128.75 L158.399873,128.75 L158.399873,121.25 L164.030645,121.25 L164.030645,128.75 L162.153721,128.75 L162.153721,130.625 L164.030645,130.625 L164.030645,140 L158.399873,140 Z M171.538341,132.5 L171.538341,140 L165.907569,140 L165.907569,121.25 L179.046037,121.25 L179.046037,132.5 L171.538341,132.5 Z M171.538341,125 L171.538341,128.75 L173.415265,128.75 L173.415265,125 L171.538341,125 Z M194.061429,121.25 L194.061429,140 L188.430657,140 L188.430657,132.5 L186.553733,132.5 L186.553733,140 L180.922961,140 L180.922961,121.25 L194.061429,121.25 Z M186.553733,125 L186.553733,128.75 L188.430657,128.75 L188.430657,125 L186.553733,125 Z M209.076821,121.25 L209.076821,125 L201.569125,125 L201.569125,136.25 L209.076821,136.25 L209.076821,140 L195.938353,140 L195.938353,121.25 L209.076821,121.25 Z M218.461441,140 L218.461441,132.5 L216.584517,132.5 L216.584517,140 L210.953745,140 L210.953745,121.25 L216.584517,121.25 L216.584517,128.75 L218.461441,128.75 L218.461441,121.25 L224.092213,121.25 L224.092213,128.75 L222.215289,128.75 L222.215289,130.625 L224.092213,130.625 L224.092213,140 L218.461441,140 Z" id="BACKPACK"></path>
            </g>
        </g>
    </g>
</svg>