<?xml version="1.0" encoding="UTF-8" standalone="no"?>
<svg width="270px" height="108px" viewBox="0 0 270 108" version="1.1" xmlns="http://www.w3.org/2000/svg" xmlns:xlink="http://www.w3.org/1999/xlink">
    <!-- Generator: Sketch 43.2 (39069) - http://www.bohemiancoding.com/sketch -->
    <title>Group 2</title>
    <desc>Created with Sketch.</desc>
    <defs></defs>
    <g id="Page-1" stroke="none" stroke-width="1" fill="none" fill-rule="evenodd">
        <g id="Desktop-HD" transform="translate(-110.000000, -46.000000)" fill="#FFFFFF">
            <g id="Group-2" transform="translate(110.000000, 46.000000)">
                <text id="PENDANT" font-family="GothamLight, Gotham Light" font-size="16" font-weight="normal" letter-spacing="7.69999981">
                    <tspan x="142.296001" y="105">PENDAN</tspan>
                    <tspan x="260.335999" y="105">T</tspan>
                </text>
                <g id="Group" transform="translate(66.500000, 54.000000) scale(-1, 1) translate(-66.500000, -54.000000) ">
                    <path d="M128.600924,0.109617978 C128.600924,0.109617978 81.1868273,16.0709663 90.4061455,39.8641348 C90.4061455,39.8641348 73.5038606,42.7275506 74.1624121,57.2679101 C74.1624121,57.2679101 56.3823273,49.1165393 56.3823273,66.0802247 C56.3823273,66.0802247 47.8219636,57.9284494 43.5413788,62.9959551 C39.261197,68.0626517 46.0651545,72.468809 48.4805152,72.358382 C48.4805152,72.358382 43.9802788,73.7902921 44.8584818,74.5612584 C45.7362818,75.3326292 50.6754182,75.3326292 53.5292758,73.7902921 C53.5292758,73.7902921 51.2239424,76.214427 49.7972152,76.7645393 C49.7972152,76.7645393 54.4070758,76.7645393 58.2479545,69.9354607 L58.1387333,74.0103371 C58.1387333,74.0103371 61.9796121,64.7575281 63.5167697,63.9865618 C63.5167697,63.9865618 63.0774667,66.6303371 63.1870909,68.0626517 C63.1870909,68.0626517 67.0287758,60.5718202 69.5529545,60.4622022 C69.5529545,60.4622022 68.1266303,63.1059775 68.1266303,64.2074157 C68.1266303,64.2074157 75.0402121,58.5893933 78.3329697,59.2507416 C78.3329697,59.2507416 75.0414212,60.5726292 74.2724394,62.3342022 C74.2724394,62.3342022 82.1198424,60.3517753 84.6448273,61.7836854 C84.6448273,61.7836854 80.0341606,62.0595506 79.1019515,63.2710112 C79.1019515,63.2710112 85.5770364,62.4996404 88.485303,64.9233708 C88.485303,64.9233708 83.9310606,64.152 82.3394939,64.8133483 C82.3394939,64.8133483 89.3639091,65.6943371 90.9002606,67.3466966 C90.9002606,67.3466966 88.3208667,66.4657079 84.9184848,67.1808539 C84.9184848,67.1808539 91.8328727,68.613573 92.6558606,69.66 C92.6558606,69.66 88.7601697,68.9986517 87.5526909,69.2745169 C87.5526909,69.2745169 91.6680333,71.8078652 93.4244394,71.8078652 L90.4061455,71.7528539 C90.4061455,71.7528539 93.2047879,73.2393708 95.1804424,72.7434607 C95.1804424,72.7434607 93.8085273,73.9553258 92.2169606,73.515236 C92.2169606,73.515236 93.9181515,75.057573 97.3749424,73.9557303 C97.3749424,73.9557303 96.8816333,75.4976629 95.8385909,75.6626966 C95.8385909,75.6626966 98.7476636,75.4426517 100.009552,73.0743371 C100.009552,73.0743371 99.9547394,74.5066517 99.8999273,74.9471461 C99.8999273,74.9471461 102.149642,73.6802697 103.191879,71.3669663 L102.973033,72.7434607 C102.973033,72.7434607 106.594664,70.1000899 106.594664,66.7961798 C106.594664,63.4910562 104.5646,59.2507416 106.3202,57.4883596 C106.3202,57.4883596 106.155764,61.1231461 108.405882,60.4067865 C110.655194,59.691236 108.789567,56.0560449 109.009621,55.1742472 C109.22887,54.2936629 109.063224,51.154382 112.082324,50.8239101 C112.082324,50.8239101 110.161079,53.4668764 111.643021,55.5051236 C113.125367,57.5433708 113.509052,54.2936629 114.606503,52.200809 C115.703955,50.1075506 115.868794,48.4001798 117.350333,48.565618 C117.350333,48.565618 114.990591,52.8067416 117.734421,52.8067416 C120.478252,52.8067416 130.630988,49.5574382 132.551427,43.3884944 C132.551427,43.3884944 133.484039,48.0701124 129.423106,50.6584719 C125.362173,53.2468315 127.557479,55.5605393 131.508385,53.0267865 C131.508385,53.0267865 129.697973,56.9916404 126.789303,57.3225169 C123.881036,57.6533933 123.002027,56.6065618 122.56353,58.0384719 C122.12463,59.4707865 124.264318,60.4626067 126.844115,58.7548315 C126.844115,58.7548315 124.265124,61.5086292 121.356052,62.0045393 C118.448188,62.5000449 117.295521,62.0045393 117.240306,64.152 C117.185897,66.3002697 122.069818,64.0969888 122.069818,64.0969888 C122.069818,64.0969888 120.14817,66.3556854 114.1672,68.7235955 C108.185827,71.0919101 107.47327,77.7555506 106.375012,79.6837753 C105.277158,81.611191 102.204052,87.6146966 90.6802061,84.0345169 C90.6802061,84.0345169 84.4247727,82.3271461 80.9671758,77.4804944 C77.5099818,72.6338427 73.2846121,78.4719101 66.3698212,86.292809 C66.3698212,86.292809 69.0592424,86.8437303 70.6504061,85.3564045 C72.2419727,83.8694831 72.2967848,81.0056629 75.5899455,81.3361348 C75.5899455,81.3361348 73.2289939,81.4461573 73.2289939,85.0809438 C73.2289939,88.7161348 70.9788758,94.1128989 74.1624121,97.8031011 C77.3451424,101.494112 77.5643909,103.531551 76.3021,105.128899 C76.3021,105.128899 75.3146758,105.789843 74.8757758,104.798022 C74.8757758,104.798022 74.1624121,101.658742 71.8574818,101.163236 C71.8574818,101.163236 71.473797,107.33218 69.4977394,107.883101 C69.4977394,107.883101 68.455503,106.781258 68.455503,104.24791 C68.455503,101.713753 68.5651273,100.39227 68.5651273,100.39227 C68.5651273,100.39227 64.8334697,102.53973 64.8334697,104.302517 C64.8334697,106.065303 65.2171545,107.497213 65.2171545,107.497213 C65.2171545,107.497213 62.5833515,106.009888 62.8574121,104.137483 C63.1326818,102.264674 64.6134152,100.117213 64.6134152,100.117213 C64.6134152,100.117213 61.2666515,101.769573 61.047,103.03564 C60.8273485,104.302517 61.2666515,106.946292 61.2666515,106.946292 C61.2666515,106.946292 58.906103,103.586966 59.6746818,101.713753 C60.4432606,99.8413483 66.9735606,96.3165843 67.6865212,94.8846742 C68.4002879,93.452764 70.1014788,89.6521348 68.455503,89.5971236 C66.8091242,89.5429213 59.5102455,91.0844494 59.5102455,91.0844494 C59.5102455,91.0844494 55.5041242,93.783236 52.9799455,93.783236 C50.4557667,93.783236 34.6517394,94.9388764 25.3223939,86.4578427 C15.9938545,77.976 14.4571,67.4013034 16.3227273,62.0037303 C18.1887576,56.6065618 19.3962364,53.4118652 24.7734667,50.217573 C30.1519061,47.0232809 32.6756818,42.0662022 29.273703,40.6342921 C25.8709182,39.202382 24.5538152,43.1676404 24.3345667,44.2690787 C24.1149152,45.3709213 24.7734667,49.2265618 21.1514333,49.6674607 C21.1514333,49.6674607 21.0921879,50.7964045 22.0292333,51.0993708 C22.0292333,51.0993708 19.7247061,50.8235056 19.0113424,50.217573 C19.0113424,50.217573 19.3382,51.4128539 20.7673455,51.7048989 C20.7673455,51.7048989 18.0239182,51.5394607 17.2001242,49.7220674 C17.2001242,49.7220674 14.6759455,49.6116404 14.6759455,47.6292135 C14.6759455,47.6292135 15.4997394,48.2351461 16.3227273,48.2351461 C16.3227273,48.2351461 15.7189879,47.4641798 15.7738,46.803236 C15.7738,46.803236 16.4327545,47.739236 17.4749909,47.9042697 C17.4749909,47.9042697 16.8160364,47.1341124 17.2001242,46.3623371 C17.2001242,46.3623371 18.1887576,48.2901573 19.7799212,47.7942472 C21.3706818,47.2991461 20.4932848,45.2608989 19.3954303,44.2690787 C19.3954303,44.2690787 18.2439727,46.582382 15.4997394,45.1508764 C15.4997394,45.1508764 18.4628182,44.9308315 18.5172273,43.2230562 C18.5728455,41.5160899 18.3531939,40.4142472 19.7799212,40.4142472 C19.7799212,40.4142472 17.8590788,39.8091236 17.3649636,41.1306067 C16.8712515,42.4524944 16.5427818,43.7739775 16.1578879,43.9390112 C16.1578879,43.9390112 15.774203,42.3970787 14.6759455,42.7275506 C13.5780909,43.058427 11.2743697,45.2058876 12.5910697,46.9682697 C13.9081727,48.7310562 13.4136545,48.5110112 13.4136545,48.5110112 C13.4136545,48.5110112 11.5480273,47.9050787 10.999503,45.9222472 C10.999503,45.9222472 8.96943939,44.4899326 9.13387576,41.2406292 C9.35755758,36.8174831 6.74753333,39.4547865 9.6824,37.7708764 C9.6824,37.7708764 9.79202424,39.8091236 12.0421424,39.5882697 C14.2922606,39.3682247 16.5967879,37.8804944 16.8712515,36.5590112 C17.1453121,35.2371236 15.5537455,34.3007191 14.7859727,35.4025618 C14.7859727,35.4025618 15.2248727,33.6947865 18.1887576,33.7502022 C18.1887576,33.7502022 17.4745879,28.5730787 18.5172273,27.251191 C18.5172273,27.251191 18.4628182,31.2722697 19.6698939,32.7041798 C19.6698939,32.7041798 22.2492879,17.2274157 26.5298727,15.8505169 C26.5298727,15.8505169 22.7982152,20.5313258 22.9082424,25.5988315 C22.9082424,25.5988315 24.8830909,18.7147416 26.8591485,17.6128989 C26.8591485,17.6128989 23.4567667,23.5609888 23.6760152,30.4454831 C23.6760152,30.4454831 30.2063152,25.268764 39.0959545,30.886382 C39.0959545,30.886382 29.4929515,28.8485393 27.6825394,32.3178876 C27.6825394,32.3178876 37.6700333,30.6663371 43.6514061,36.8344719 C43.6514061,36.8344719 40.4130576,34.6862022 36.0236545,35.457573 C36.0236545,35.457573 41.6753485,35.7330337 43.9250636,42.837573 C43.9250636,42.837573 42.2238727,40.9651685 41.1268242,40.359236 C41.1268242,40.359236 42.8828273,46.1422921 41.6209394,49.501618 C41.6209394,49.501618 41.1276303,48.5110112 40.7431394,47.9050787 C40.7431394,47.9050787 40.0837818,51.9253483 37.1755152,55.3951011 L36.9014545,53.0267865 C36.9014545,53.0267865 34.2664424,56.3315056 34.8157727,59.4161798 C34.8157727,59.4161798 43.1028818,53.3018427 47.1630091,44.3795056 C51.2243455,35.457573 51.0046939,31.2714607 50.2361152,29.2890337 C49.4683424,27.3057978 48.7001667,23.2305169 49.4683424,22.2391011 C49.4683424,22.2391011 50.3465455,28.9581573 55.0656273,27.3057978 C59.7851121,25.6538427 81.6813455,4.25164045 128.600924,0.109617978" id="Fill-41"></path>
                    <path d="M17.7216455,61.5636404 C17.7216455,61.5636404 13.4410606,58.0934831 12.4532333,56.4411236 C12.4532333,56.4411236 13.1210545,60.4067865 9.12420303,60.4067865 C9.12420303,60.4067865 11.3835909,59.3332584 10.8068545,57.1849888 C10.2305212,55.0367191 7.51490303,56.0281348 7.18522424,57.0199551 C6.85594848,58.0105618 5.78590303,58.8373483 7.18522424,61.5636404 C7.18522424,61.5636404 3.88843636,59.9958202 6.48354848,55.9051685 C6.48354848,55.9051685 4.13992727,57.1849888 4.22214545,59.0853034 C4.30476667,60.984809 4.79807576,61.5636404 4.79807576,61.5636404 C4.79807576,61.5636404 2.32870909,59.6629213 3.23391515,57.6804944 C4.13992727,55.6980674 5.12735152,54.5897528 5.12735152,54.5897528 C5.12735152,54.5897528 2.65838788,56.0281348 2.41092727,57.3500225 C2.16427273,58.6715056 2.41092727,59.9937978 2.41092727,59.9937978 C2.41092727,59.9937978 0.380460606,56.124809 2.30130303,54.5897528 C4.22214545,53.0538876 6.69151212,52.1453933 8.0904303,52.2279101 C9.49055758,52.3108315 11.7128667,52.2279101 12.7006939,53.6327191 C13.6881182,55.0367191 16.4871636,58.6715056 19.0383455,57.2679101" id="Fill-42"></path>
                    <path d="M17.1453121,61.5636404 C17.1453121,61.5636404 15.0048182,65.6114157 11.0543152,65.0333933 C7.10260303,64.4549663 7.43228182,63.2981124 6.28001818,64.0419775 C5.12735152,64.7854382 3.97468485,65.6939326 3.06947879,65.8593708 C2.16427273,66.024809 1.85676061,66.1073258 1.47549394,67.1808539 C1.09422727,68.2547865 -0.634772727,69.8246292 0.435675758,71.7249438 C0.435675758,71.7249438 0.2926,69.9900674 1.47549394,69.7421124 C1.47549394,69.7421124 -0.0584393939,74.3683146 5.95114545,74.5341573 C5.95114545,74.5341573 2.09333939,72.7794607 2.82242121,69.2462022 C2.82242121,69.2462022 3.1521,73.6252584 7.51490303,73.1293483 C7.51490303,73.1293483 3.23391515,71.1461124 5.20997273,68.0484944 C5.20997273,68.0484944 6.37029697,71.3119551 9.12420303,71.6420225 C9.12420303,71.6420225 5.04513333,69.1636854 7.51490303,66.1073258 C7.51490303,66.1073258 11.1369364,67.676764 12.288797,67.676764 C13.4410606,67.676764 15.6311273,66.5215281 15.6311273,66.5215281" id="Fill-43"></path>
                    <path d="M49.2482879,93.2044045 C49.2482879,93.2044045 48.3430818,96.1782472 44.9681061,96.0957303 C41.5927273,96.013618 35.3368909,92.5466966 32.2915939,96.0977528 C32.2915939,96.0977528 29.7396061,97.9131236 30.0688818,99.4004494 C30.0688818,99.4004494 30.8914667,97.5830562 32.3742152,97.9131236 C32.3742152,97.9131236 30.8100545,100.474382 31.880503,102.374697 C31.880503,102.374697 32.9501455,97.4180225 39.0411424,99.8138427 C42.6490697,101.232809 43.7332212,100.061798 45.9551273,99.3179326 C45.9551273,99.3179326 50.5657939,100.887775 53.2814121,99.9784719 C55.9978364,99.070382 57.0682848,98.4919551 58.3031697,99.4833708 C58.3031697,99.4833708 57.3153424,96.4674607 53.6114939,97.0871461 C49.9068394,97.707236 52.9799455,93.783236 52.9799455,93.783236" id="Fill-44"></path>
                </g>
                <text id="Dragon" font-family="Higher" font-size="72" font-weight="normal" line-spacing="60" letter-spacing="3">
                    <tspan x="144" y="84">Drago</tspan>
                    <tspan x="253.896" y="84">n</tspan>
                </text>
            </g>
        </g>
    </g>
</svg>